<svg version="1.0" xmlns="http://www.w3.org/2000/svg"
 width="7396.000000pt" height="5742.000000pt" viewBox="0 0 7396.000000 5742.000000"
 preserveAspectRatio="xMidYMid meet">
<metadata>
Created by potrace 1.16, written by Peter Selinger 2001-2019
</metadata>
<g transform="translate(0.000000,5742.000000) scale(0.100000,-0.100000)"
fill="#000000" stroke="none">
<path d="M26810 47255 l-10165 -10165 10168 -10167 10167 -10168 10165 10165
c5591 5591 10165 10168 10165 10172 0 5 -1835 8 -4077 8 l-4078 0 -6087 -6087
-6088 -6088 -6082 6083 -6083 6082 6088 6088 6087 6087 0 4078 c0 2242 -3
4077 -8 4077 -4 0 -4581 -4574 -10172 -10165z"/>
<path d="M0 36982 c0 -4 8320 -8328 18490 -18497 l18490 -18490 18490 18490
c10170 10169 18490 18493 18490 18497 0 5 -1889 8 -4197 8 l-4198 0 -14292
-14292 -14293 -14293 -14293 14293 -14292 14292 -4198 0 c-2308 0 -4197 -3
-4197 -8z"/>
</g>
</svg>